<svg xmlns="http://www.w3.org/2000/svg" viewBox="0 0 512 512">
  <defs>
    <linearGradient id="bg" x1="0%" y1="0%" x2="100%" y2="100%">
      <stop offset="0%" style="stop-color:#6366f1"/>
      <stop offset="100%" style="stop-color:#8b5cf6"/>
    </linearGradient>
    <linearGradient id="film" x1="0%" y1="0%" x2="100%" y2="100%">
      <stop offset="0%" style="stop-color:#f8fafc"/>
      <stop offset="100%" style="stop-color:#e2e8f0"/>
    </linearGradient>
  </defs>
  
  <rect width="512" height="512" rx="108" fill="url(#bg)"/>
  
  <g fill="url(#film)">
    <rect x="80" y="120" width="352" height="272" rx="24" fill="url(#film)" opacity="0.2"/>
    
    <rect x="80" y="120" width="60" height="272" rx="12"/>
    <rect x="372" y="120" width="60" height="272" rx="12"/>
    
    <rect x="80" y="120" width="352" height="40" rx="12"/>
    <rect x="80" y="232" width="352" height="40" rx="12"/>
    <rect x="80" y="352" width="352" height="40" rx="12"/>
    
    <circle cx="110" cy="140" r="12" fill="url(#bg)"/>
    <circle cx="110" cy="252" r="12" fill="url(#bg)"/>
    <circle cx="110" cy="372" r="12" fill="url(#bg)"/>
    
    <circle cx="402" cy="140" r="12" fill="url(#bg)"/>
    <circle cx="402" cy="252" r="12" fill="url(#bg)"/>
    <circle cx="402" cy="372" r="12" fill="url(#bg)"/>
  </g>
  
  <polygon points="220,180 220,332 340,256" fill="#fff"/>
</svg>